# xmcd
#
# Track frame offsets: 
#        150
#        11322
#        24662
#        36580
#        47563
#        57995
#        71842
#        85473
#        96736
#        112171
#
# Disc length: 1685 seconds
#
# Revision: 0
# Processed by: cddbd v1.5.2PL0 Copyright (c) Steve Scherf et al.
# Submitted via: ExactAudioCopyFreeDBPlugin 1.0
#
DISCID=9006930a
DTITLE=Conway Twitty - Snapshot
DYEAR=2014
DGENRE=Country
TTITLE0=Hello Darlin'
TTITLE1=After All The Good Is Gone
TTITLE2=Lying Here With Linda On My Mind
TTITLE3=As Soon As I Hang Up The Phone
TTITLE4=I Can't Believe She Gives It All To Me
TTITLE5=Baby's Gone
TTITLE6=Games That Daddies Play
TTITLE7=It's Only Make Believe
TTITLE8=Touch The Hand
TTITLE9=You've Never Been This Far Before
EXTD=
EXTT0=
EXTT1=
EXTT2=
EXTT3=
EXTT4=
EXTT5=
EXTT6=
EXTT7=
EXTT8=
EXTT9=
PLAYORDER=
